<?xml version="1.0" standalone="no"?>
<!DOCTYPE svg PUBLIC "-//W3C//DTD SVG 20010904//EN"
 "http://www.w3.org/TR/2001/REC-SVG-20010904/DTD/svg10.dtd">
<svg version="1.0" xmlns="http://www.w3.org/2000/svg"
 width="432.000000pt" height="49.000000pt" viewBox="0 0 432.000000 49.000000"
 preserveAspectRatio="xMidYMid meet">

<g transform="translate(0.000000,49.000000) scale(0.100000,-0.100000)"
fill="#000000" stroke="none">
<path d="M3407 416 c-78 -29 -120 -90 -120 -176 0 -90 50 -158 135 -181 79
-21 170 17 201 84 24 51 22 57 -23 57 -22 0 -40 -5 -40 -10 0 -6 -11 -22 -25
-35 -35 -36 -94 -34 -137 4 -29 26 -33 35 -33 81 0 46 4 55 33 81 48 43 103
41 146 -6 24 -26 41 -35 64 -35 36 0 39 8 15 57 -33 71 -137 108 -216 79z"/>
<path d="M3905 415 c-110 -39 -156 -180 -91 -277 93 -138 310 -101 344 59 33
153 -103 271 -253 218z m138 -85 c84 -66 38 -200 -68 -200 -105 0 -153 128
-74 194 39 33 104 36 142 6z"/>
<path d="M90 240 l0 -180 110 0 110 0 0 35 0 35 -70 0 -70 0 0 145 0 145 -40
0 -40 0 0 -180z"/>
<path d="M470 240 l0 -180 35 0 35 0 0 180 0 180 -35 0 -35 0 0 -180z"/>
<path d="M730 240 l0 -180 40 0 39 0 3 107 3 108 78 -108 c73 -100 80 -107
113 -107 l34 0 0 180 0 180 -40 0 -39 0 -3 -107 -3 -108 -75 107 c-72 104 -76
107 -112 108 l-38 0 0 -180z"/>
<path d="M1220 240 l0 -180 88 0 c63 0 98 6 128 19 136 62 136 260 0 322 -30
13 -65 19 -128 19 l-88 0 0 -180z m213 70 c26 -29 29 -39 24 -78 -7 -62 -40
-93 -106 -100 l-51 -5 0 113 0 113 52 -5 c43 -5 57 -11 81 -38z"/>
<path d="M1803 403 c-3 -10 -28 -74 -56 -143 -27 -69 -55 -142 -63 -162 l-13
-38 39 0 c36 0 41 3 55 35 l14 36 73 -3 c72 -3 72 -3 82 -35 8 -31 12 -33 53
-33 l43 0 -13 33 c-7 17 -40 98 -73 180 l-59 147 -38 0 c-27 0 -39 -5 -44 -17z
m69 -141 c10 -26 18 -50 18 -54 0 -5 -20 -8 -44 -8 l-43 0 21 59 c11 33 23 58
25 55 3 -3 13 -26 23 -52z"/>
<path d="M2180 240 l0 -180 35 0 34 0 3 113 3 112 80 -112 c73 -103 83 -112
113 -113 l32 0 0 180 0 180 -35 0 -35 0 0 -106 c0 -60 -4 -103 -9 -100 -5 4
-41 51 -81 106 -66 94 -73 100 -105 100 l-35 0 0 -180z"/>
<path d="M2670 240 l0 -180 110 0 110 0 0 35 0 35 -70 0 -70 0 0 40 0 40 60 0
60 0 0 35 0 35 -60 0 -60 0 0 35 0 35 70 0 70 0 0 35 0 35 -110 0 -110 0 0
-180z"/>
<path d="M3050 100 l0 -40 40 0 40 0 0 40 0 40 -40 0 -40 0 0 -40z"/>
</g>
</svg>
